<svg width="1168" height="1420" viewBox="0 0 1168 1420" fill="none" xmlns="http://www.w3.org/2000/svg">
<rect width="1168" height="1420" fill="white"/>
<path d="M536 777H744V1294H536V777Z" fill="#2D4A2D"/>
<path d="M397 126H744V436H538L443 371.5L397 126Z" fill="#2F9D50"/>
<path d="M504.2 281C520.327 281 533.4 265.106 533.4 245.5C533.4 225.894 520.327 210 504.2 210C488.073 210 475 225.894 475 245.5C475 265.106 488.073 281 504.2 281Z" fill="#2D4A2D"/>
<path d="M570.658 734L701.008 896.089L289.35 1227.14L159 1065.05L570.658 734Z" fill="#6CB782"/>
<path d="M359.5 895.5L413 609L498 436H783V895.5H359.5Z" fill="#2F9D50"/>
<path d="M570.89 464L776.757 493.707L732.435 800.854L526.568 771.147L570.89 464Z" fill="#6CB782"/>
</svg>
