<svg width="600" height="600" viewBox="0 0 600 600" fill="none" xmlns="http://www.w3.org/2000/svg">
<path d="M303.587 200.384L138.753 143.302L48 327.867L138.753 366.5L183.087 248.5L260.169 268.649L303.587 200.384Z" fill="#2D4A2D"/>
<path d="M326 251H461V600H326V251Z" fill="#2D4A2D"/>
<path d="M226 104.5L244.5 0H460.5V43V145H296L226 104.5Z" fill="#2F9D50"/>
<path d="M308.278 287.927L383.86 381.912L138.782 579L63.2002 485.015L308.278 287.927Z" fill="#6CB782"/>
<path d="M188 382V236.5L260.5 145H461V382H188Z" fill="#2F9D50"/>
<path d="M333 200.384L497.834 143.302L588.587 327.867L497.834 366.5L453.5 248.5L376.418 268.649L333 200.384Z" fill="#6CB782"/>
<path d="M289.864 65C303.044 65 313.728 58.0604 313.728 49.5C313.728 40.9396 303.044 34 289.864 34C276.684 34 266 40.9396 266 49.5C266 58.0604 276.684 65 289.864 65Z" fill="#2D4A2D"/>
<path d="M307.5 122H256L275 132.5H307.5V122Z" fill="#2D4A2D"/>
</svg>
