<svg width="39" height="60" viewBox="0 0 39 60" fill="none" xmlns="http://www.w3.org/2000/svg">
<path d="M4.5 13H1V5H8.5V1H24V5H32.5V13H37V29.5H28.5V25.5H24V21.5H20.5V25.5H13V20.5H8.5V17H4.5V13Z" fill="#D9D9D9" stroke="black"/>
<path d="M2.5 28.5V13.5H4.5V17H8.5V20.5H13V25.5H20.5V21.5H24V25.5H28.5V30H33V33.5H28.5V35H9.5V32.5H6V28.5H2.5Z" fill="#2F9D50" stroke="black"/>
<path d="M18.5 51H9.5V55H18.5V51Z" fill="#37BAEA" stroke="black"/>
<path d="M31 51H22V55H31V51Z" fill="#37BAEA" stroke="black"/>
<path d="M27 35H7V39V47V51H31.5L31 39H27V35Z" fill="#905A28" stroke="black"/>
<path d="M24 44V36H32.5V44H24Z" fill="#2F9D50" stroke="black"/>
<path d="M5 26.5V22H7V26.5H5Z" fill="#120F0F" stroke="black"/>
<path d="M3 43V35H11.5V38.5H7V43H3Z" fill="#2F9D50" stroke="black"/>
<path d="M2 55.5V51H9.5V55.5H13V59.5H6V55.5H2Z" fill="#762F08" stroke="black"/>
<path d="M38 55.5V51H30.5V55.5H27V59.5H34V55.5H38Z" fill="#762F08" stroke="black"/>
</svg>
