<svg width="38" height="59" viewBox="0 0 38 59" fill="none" xmlns="http://www.w3.org/2000/svg">
<path d="M4.5 13H1V5H8.5V1H24V5H32.5V13H37V29.5H28.5V25.5H24V21.5H20.5V25.5H13V20.5H8.5V17H4.5V13Z" fill="#D9D9D9" stroke="black"/>
<path d="M2.5 28.5V13.5H4.5V17H8.5V20.5H13V25.5H20.5V21.5H24V25.5H28.5V30H33V33.5H28.5V35H9.5V32.5H6V28.5H2.5Z" fill="#2F9D50" stroke="black"/>
<path d="M34.5 55H22.5V58H34.5V55Z" fill="#762F08" stroke="black"/>
<path d="M19 55H7V58H19V55Z" fill="#762F08" stroke="black"/>
<path d="M18.5 51H9.5V55H18.5V51Z" fill="#37BAEA" stroke="black"/>
<path d="M34 51H25V55H34V51Z" fill="#37BAEA" stroke="black"/>
<path d="M27 35H7V39V47V51H31.5L31 39H27V35Z" fill="#905A28" stroke="black"/>
<path d="M13.5 51V43H22V51H13.5Z" fill="#2F9D50" stroke="black"/>
<path d="M5 26.5V22H7V26.5H5Z" fill="#120F0F" stroke="black"/>
</svg>
